<?xml version="1.0" standalone="no"?>
<!DOCTYPE svg PUBLIC "-//W3C//DTD SVG 20010904//EN"
 "http://www.w3.org/TR/2001/REC-SVG-20010904/DTD/svg10.dtd">
<svg version="1.0" xmlns="http://www.w3.org/2000/svg"
 width="256.000000pt" height="256.000000pt" viewBox="0 0 256.000000 256.000000"
 preserveAspectRatio="xMidYMid meet">

<g transform="translate(0.000000,256.000000) scale(0.100000,-0.100000)"
fill="#000000" stroke="none">
<path d="M235 2510 c-11 -4 -31 -20 -45 -35 l-25 -27 0 -1169 0 -1169 33 -32
32 -33 1011 -3 c744 -2 1015 1 1025 9 12 9 14 96 14 480 l0 469 68 0 c40 0 73
5 80 12 17 17 17 359 0 376 -7 7 -40 12 -80 12 l-68 0 0 40 0 40 68 0 c40 0
73 5 80 12 17 17 17 359 0 376 -7 7 -40 12 -80 12 l-68 0 0 40 0 40 68 0 c40
0 73 5 80 12 17 17 17 359 0 376 -7 7 -40 12 -80 12 l-68 0 0 68 c0 40 -5 73
-12 80 -9 9 -247 12 -1012 11 -551 0 -1010 -4 -1021 -9z m165 -1230 l0 -1160
-68 0 c-40 0 -73 5 -80 12 -17 17 -17 2279 0 2296 7 7 40 12 80 12 l68 0 0
-1160z m1800 1140 c0 -20 -7 -20 -860 -20 -853 0 -860 0 -860 20 0 20 7 20
860 20 853 0 860 0 860 -20z m160 -260 l0 -120 -40 0 -40 0 0 120 0 120 40 0
40 0 0 -120z m-1166 -349 c29 -28 57 -26 102 4 20 14 49 25 64 25 15 0 44 -11
64 -25 46 -31 73 -32 104 -2 18 17 36 22 73 22 42 0 53 -5 81 -33 28 -28 33
-39 33 -82 0 -40 -5 -54 -29 -79 -17 -18 -44 -33 -65 -37 -61 -11 -61 -12 -61
-175 l0 -149 -40 0 -39 0 -3 111 c-3 94 -6 114 -20 123 -13 8 -23 8 -35 0 -15
-9 -18 -29 -21 -123 l-3 -111 -39 0 -39 0 -3 111 c-3 94 -6 114 -20 123 -13 8
-23 8 -36 0 -14 -9 -17 -29 -20 -123 l-3 -111 -39 0 -40 0 0 149 c0 163 0 164
-61 175 -21 4 -48 19 -65 37 -55 57 -33 157 41 190 31 14 95 3 119 -20z m1166
-131 l0 -120 -40 0 -40 0 0 120 0 120 40 0 40 0 0 -120z m0 -480 l0 -120 -40
0 -40 0 0 120 0 120 40 0 40 0 0 -120z"/>
</g>
</svg>
